<svg xmlns="http://www.w3.org/2000/svg" width="753" height="125" viewBox="0 0 753 125">
  <metadata><?xpacket begin="﻿" id="W5M0MpCehiHzreSzNTczkc9d"?>
<x:xmpmeta xmlns:x="adobe:ns:meta/" x:xmptk="Adobe XMP Core 5.6-c138 79.159824, 2016/09/14-01:09:01        ">
   <rdf:RDF xmlns:rdf="http://www.w3.org/1999/02/22-rdf-syntax-ns#">
      <rdf:Description rdf:about=""/>
   </rdf:RDF>
</x:xmpmeta>
                                                                                                    
                                                                                                    
                                                                                                    
                                                                                                    
                                                                                                    
                                                                                                    
                                                                                                    
                                                                                                    
                                                                                                    
                                                                                                    
                                                                                                    
                                                                                                    
                                                                                                    
                                                                                                    
                                                                                                    
                                                                                                    
                                                                                                    
                                                                                                    
                                                                                                    
                                                                                                    
                           
<?xpacket end="w"?></metadata>
<defs>
    <style>
      .cls-1 {
        fill: #18172d;
        fill-rule: evenodd;
      }
    </style>
  </defs>
  <path id="Welcome_to_jsm" data-name="Welcome to jsm" class="cls-1" d="M140.758,15.523q5.1,0,7.969-2.2A7.216,7.216,0,0,0,151.6,7.262q0-5.742-8.145-5.742H132.027a10.651,10.651,0,0,0-9.9,5.625L120.9,9.43,94.527,54.84l1.055-44.59,0.059-.645a8.586,8.586,0,0,0-2.52-6.475A9.137,9.137,0,0,0,86.5.7q-7.207,0-10.723,7.793L54.859,53.9,54.508,33.512l-0.059-4.629q0-14.766-5.127-21.475T32.77,0.7q-12.48,0-22.353,9.58T0.543,31.988q0,9.962,6.211,16.465a20.786,20.786,0,0,0,15.7,6.5,18.463,18.463,0,0,0,10.2-2.607Q36.7,49.743,36.7,45.816q0-5.918-7.148-5.918-0.294,0-1.406.059t-2.344.059a9.052,9.052,0,0,1-9.551-9.551q0-5.1,4.688-10.107t9.434-5.01q5.331,0,7.178,3.721t1.846,14.443L40.621,74q0,4.922,2.49,7.705A8.766,8.766,0,0,0,50,84.488q6.093,0,9.316-6.914L80.641,31.988,79.117,74q0,5.04,2.4,7.764a8.583,8.583,0,0,0,6.8,2.725q5.742,0,9.785-6.914L134.2,15.523h6.563Zm20.39,48.809q7.089,0,10.665-2.168,6.444-3.808,6.445-11.719A13.282,13.282,0,0,0,173.6,39.869q-4.659-4.013-12.334-4.014-10.548,0-18.194,8.2a27.645,27.645,0,0,0-7.646,19.512q0,8.789,4.834,13.359t14.092,4.57h16.582q4.686,0,7.3-1.992a6.607,6.607,0,0,0,2.607-5.566q0-5.214-7.383-5.215h-17.4q-6.623,0-6.621-4.395h11.718Zm-0.41-16.523q3.867,0,4.043,3.105,0.175,2.755-6.093,2.754h-6.446q3.105-5.859,8.5-5.859h0Zm60.821-35.156L222.2,11.07a11.016,11.016,0,0,0,.879-3.984,5.23,5.23,0,0,0-1.728-3.926,5.868,5.868,0,0,0-4.19-1.641q-5.919,0-8.613,6.563l-0.645,1.582L184.234,67.906a19.12,19.12,0,0,0-1.7,6.035,6.733,6.733,0,0,0,2.52,5.508A10.542,10.542,0,0,0,191.91,81.5h10.547q4.688,0,7.3-1.992a6.6,6.6,0,0,0,2.607-5.566q0-5.214-7.441-5.215h-6.152Zm34.189,66.826a6.572,6.572,0,0,0,2.666-5.537q0-5.214-7.441-5.215H239.9q-6.094,0-8.642-1.729t-2.549-5.889a14.366,14.366,0,0,1,3.135-9.023q3.133-4.043,6.943-4.043,4.042,0,4.043,4.1,0,0.586-.058,1.23v1.289q0,5.04,5.39,5.039a6.752,6.752,0,0,0,5.567-2.783A11.248,11.248,0,0,0,255.9,49.8a12.872,12.872,0,0,0-4.336-10.078q-4.338-3.867-11.25-3.867-10.2,0-17.754,8.086A26.973,26.973,0,0,0,215,62.984q0,8.2,4.6,13.359A15.233,15.233,0,0,0,231.52,81.5h16.992A11.7,11.7,0,0,0,255.748,79.479ZM268.727,44A26.538,26.538,0,0,0,260.7,63.277q0,10.547,7.852,15.938,3.339,2.285,12.89,2.285a35.521,35.521,0,0,0,9.112-.908,18,18,0,0,0,6.3-3.311,27.082,27.082,0,0,0,7.441-9.873,29.327,29.327,0,0,0,2.871-12.451,18.42,18.42,0,0,0-5.478-13.711,19.1,19.1,0,0,0-13.975-5.391A25.772,25.772,0,0,0,268.727,44Zm22.617,6.387a7.538,7.538,0,0,1,1.933,5.391,15.137,15.137,0,0,1-3.984,10.313,8.608,8.608,0,0,1-6.855,2.754q-7.619,0-7.618-6.8a14.373,14.373,0,0,1,3.575-9.434q3.573-4.276,7.91-4.277A6.61,6.61,0,0,1,291.344,50.387Zm95.683,2.871a16.261,16.261,0,0,0,1.289-6.152,10.151,10.151,0,0,0-3.779-8,13.909,13.909,0,0,0-9.4-3.252q-8.2,0-14.766,6.855a12.741,12.741,0,0,0-11.777-6.855,14.987,14.987,0,0,0-6.123,1.113,29.862,29.862,0,0,0-6.475,4.512q-1.23-4.8-6.328-4.8-4.922,0-7.383,6.035l-11.66,28.711L309.977,73a11.02,11.02,0,0,0-.879,3.984,4.892,4.892,0,0,0,1.728,3.779,5.973,5.973,0,0,0,4.131,1.553q6.093,0,9.316-7.91l6.856-16.816q3.691-9.141,10.019-9.141a4.2,4.2,0,0,1,2.754.967,2.863,2.863,0,0,1,1.172,2.256,9.818,9.818,0,0,1-.879,3.4l-6.621,16.348L336.93,73a11.365,11.365,0,0,0-.879,3.984,4.956,4.956,0,0,0,1.7,3.75,5.8,5.8,0,0,0,4.1,1.582q6.151,0,9.375-7.852L357.789,58.3a19,19,0,0,1,4.688-7.148,8.791,8.791,0,0,1,5.918-2.7q3.867,0,3.867,3.809a5.881,5.881,0,0,1-.469,2.168l-5.508,13.418a17.914,17.914,0,0,0-1.582,6.211,6.741,6.741,0,0,0,2.4,5.391,9.32,9.32,0,0,0,6.27,2.051H385.27a11.673,11.673,0,0,0,7.236-1.992,6.6,6.6,0,0,0,2.607-5.566q0-5.214-7.383-5.215h-6.972Zm36.094,11.074q7.089,0,10.664-2.168,6.445-3.808,6.445-11.719a13.279,13.279,0,0,0-4.658-10.576q-4.658-4.013-12.334-4.014-10.546,0-18.193,8.2A27.642,27.642,0,0,0,397.4,63.57q0,8.789,4.834,13.359t14.092,4.57h16.582q4.688,0,7.3-1.992a6.605,6.605,0,0,0,2.608-5.566q0-5.214-7.383-5.215h-17.4q-6.621,0-6.621-4.395h11.719Zm-0.41-16.523q3.867,0,4.043,3.105,0.175,2.755-6.094,2.754h-6.445q3.105-5.859,8.5-5.859h0ZM506.5,32.047a14.49,14.49,0,0,0,1.523-5.625,5.135,5.135,0,0,0-1.728-3.9,5.852,5.852,0,0,0-4.131-1.611q-5.919,0-8.672,6.5L492.848,29l-3.106,7.676h-2.695q-4.689,0-7.3,2.021a6.745,6.745,0,0,0-2.607,5.654q0,5.1,6.562,5.1h0.879L477.672,66.5l-1.113,2.578a13.054,13.054,0,0,0-1.055,4.8,6.705,6.705,0,0,0,2.607,5.566,11.119,11.119,0,0,0,7.061,2.051H495.66q4.688,0,7.295-1.992a6.605,6.605,0,0,0,2.608-5.566q0-5.214-7.442-5.215h-6.562l7.851-19.277h4.278a11.8,11.8,0,0,0,7.265-1.992,6.576,6.576,0,0,0,2.637-5.566q0-5.214-7.442-5.215h-1.816ZM519.273,44a26.541,26.541,0,0,0-8.027,19.277q0,10.547,7.852,15.938,3.339,2.285,12.89,2.285a35.521,35.521,0,0,0,9.112-.908,17.99,17.99,0,0,0,6.3-3.311,27.084,27.084,0,0,0,7.442-9.873,29.327,29.327,0,0,0,2.871-12.451,18.42,18.42,0,0,0-5.479-13.711,19.1,19.1,0,0,0-13.974-5.391A25.776,25.776,0,0,0,519.273,44Zm22.618,6.387a7.538,7.538,0,0,1,1.933,5.391A15.137,15.137,0,0,1,539.84,66.09a8.609,8.609,0,0,1-6.856,2.754q-7.617,0-7.617-6.8a14.377,14.377,0,0,1,3.574-9.434q3.574-4.276,7.911-4.277A6.61,6.61,0,0,1,541.891,50.387Zm80.625-.879a14.142,14.142,0,0,0,1.23-5.273q0-5.917-7.09-5.918h-14q-4.746,0-7.353,1.992a6.605,6.605,0,0,0-2.608,5.566q0,5.216,7.442,5.215h6.328L593.16,83.9H580.973q-13.36,0-19.746,4.512a20.132,20.132,0,0,0-6.329,7.412,20.557,20.557,0,0,0-2.4,9.522,17.8,17.8,0,0,0,6.152,13.8,21.934,21.934,0,0,0,15.235,5.538q15.117,0,23.2-16.172l1.7-3.457,4.16-8.379h9.141q4.688,0,7.295-2.021a6.625,6.625,0,0,0,2.607-5.537q0-5.216-7.383-5.215H608.16ZM580.65,108.424a10.439,10.439,0,0,1-7.587,3.31,6.762,6.762,0,0,1-4.864-1.787,6.075,6.075,0,0,1-1.875-4.6q0-8.673,13.418-8.672h8.2Q583.961,105.114,580.65,108.424Zm36.27-88.067a7.857,7.857,0,0,0-2.373,5.772,8.145,8.145,0,1,0,16.289,0A8.162,8.162,0,0,0,616.92,20.357Zm31.2,37.354a11.436,11.436,0,0,1,1.524,5.1q0,5.919-8.145,5.918h-6.8a11.676,11.676,0,0,0-7.265,2.021,6.658,6.658,0,0,0-2.637,5.6q0,5.157,7.441,5.156h12.246A19.746,19.746,0,0,0,658.2,76.549a15.908,15.908,0,0,0,5.508-12.334q0-6.621-5.1-13.711l-3.339-4.629a13.054,13.054,0,0,1-2.754-7.559,12.875,12.875,0,0,1,.234-2.285,15.51,15.51,0,0,0,.352-2.285,4.645,4.645,0,0,0-1.641-3.545,5.63,5.63,0,0,0-3.926-1.494q-4.278,0-7.148,5.684l-7.793,15.82a13.157,13.157,0,0,0-1.7,5.449,4.991,4.991,0,0,0,1.9,3.838,6.354,6.354,0,0,0,4.306,1.67q4.747,0,7.325-5.8l1.113-2.7Zm96.563-4.453a16.28,16.28,0,0,0,1.289-6.152,10.152,10.152,0,0,0-3.78-8,13.909,13.909,0,0,0-9.4-3.252q-8.2,0-14.766,6.855a12.741,12.741,0,0,0-11.777-6.855,14.99,14.99,0,0,0-6.123,1.113,29.862,29.862,0,0,0-6.475,4.512q-1.23-4.8-6.328-4.8-4.922,0-7.382,6.035L668.277,71.422,667.633,73a11.02,11.02,0,0,0-.879,3.984,4.892,4.892,0,0,0,1.728,3.779,5.973,5.973,0,0,0,4.131,1.553q6.093,0,9.317-7.91l6.855-16.816q3.692-9.141,10.02-9.141a4.2,4.2,0,0,1,2.754.967,2.862,2.862,0,0,1,1.171,2.256,9.811,9.811,0,0,1-.878,3.4L695.23,71.422,694.586,73a11.365,11.365,0,0,0-.879,3.984,4.956,4.956,0,0,0,1.7,3.75,5.8,5.8,0,0,0,4.1,1.582q6.151,0,9.375-7.852L715.445,58.3a19,19,0,0,1,4.688-7.148,8.8,8.8,0,0,1,5.918-2.7q3.867,0,3.867,3.809a5.881,5.881,0,0,1-.469,2.168l-5.508,13.418a17.937,17.937,0,0,0-1.582,6.211,6.742,6.742,0,0,0,2.4,5.391,9.315,9.315,0,0,0,6.269,2.051h11.9a11.671,11.671,0,0,0,7.236-1.992,6.605,6.605,0,0,0,2.608-5.566q0-5.214-7.383-5.215h-6.973Z"/>
</svg>
